<svg id="Layer_1" data-name="Layer 1" xmlns="http://www.w3.org/2000/svg" viewBox="0 0 216.63 181"><defs><style>.cls-1{fill:transparent;}.cls-2{fill:#00467f;}</style></defs><title>Logo-ITESO-Vertical</title><rect class="cls-1" width="216.63" height="181"/><path class="cls-1" d="M152.12,62.68a44.2,44.2,0,1,1-44.2-44.21,44.23,44.23,0,0,1,44.2,44.21"/><path class="cls-2" d="M82.14,33.57c-3.49,3.74.23,13.69,8.53,24.81,1.85-2.14,3.85-4.27,6-6.39a120.33,120.33,0,0,1,10.68-9.49C96,33.66,85.75,29.74,82.14,33.57"/><path class="cls-2" d="M133.92,33.78c-3.77-3.54-13.91.29-25.16,8.77a121.29,121.29,0,0,1,9.83,8.87q3.57,3.57,6.66,7.21c8.66-11.23,12.46-21.29,8.67-24.85"/><path class="cls-2" d="M107.8,83.4c-12.57,9.74-24.36,14.5-30,11.68a44.22,44.22,0,0,0,59.87.31c-5.66,2.72-17.38-2.1-29.86-12"/><path class="cls-2" d="M87.17,62.57C77.41,50,72.66,38.15,75.52,32.52a44.22,44.22,0,0,0-.3,60c-2.79-5.64,2-17.4,12-29.92"/><path class="cls-2" d="M152.13,62.67a44.1,44.1,0,0,0-11.54-29.8c2.78,5.65-2.06,17.4-12,29.91,9.7,12.53,14.46,24.3,11.69,30a44,44,0,0,0,11.81-30.07"/><path class="cls-2" d="M119.16,73.36C116.77,75.73,114.36,78,112,80c11.22,8.68,21.29,12.48,24.85,8.68s-.29-13.91-8.77-25.16a118,118,0,0,1-8.87,9.83"/><path class="cls-2" d="M103.6,79.92c-2.14-1.86-4.27-3.87-6.39-6a123.51,123.51,0,0,1-9.49-10.67C78.87,74.61,75,84.84,78.8,88.44s13.69-.22,24.8-8.52"/><path class="cls-2" d="M108,42c12.56-9.72,24.35-14.48,30-11.68A44.21,44.21,0,0,0,78,30c5.62-2.84,17.42,2,30,11.93"/><path class="cls-2" d="M107.79,76.62c2.54-2.12,5.12-4.45,7.67-7a114.61,114.61,0,0,0,9.22-10.31c-2-2.44-4.26-4.88-6.66-7.31a114.06,114.06,0,0,0-10-9,114.14,114.14,0,0,0-10.8,9.49c-2.19,2.15-4.22,4.33-6.09,6.49a113.76,113.76,0,0,0,9.75,11.17q3.42,3.45,6.86,6.39m-11-18.26,9.77.3a.58.58,0,0,0,.61-.55l-.23-9.9h2l-.24,9.9c0,.31.2.49.6.55l9.79-.3v2l-9.79-.3a.54.54,0,0,0-.6.56h0l.24,9.89h-2l.23-9.89a.51.51,0,0,0-.61-.56l-9.77.3Z"/><path class="cls-2" d="M87.22,140.82a.31.31,0,0,1,.16-.39,2.06,2.06,0,0,0,1-.73,1.84,1.84,0,0,0,.42-1.11c0-.31-.09-.47-.29-.47a.63.63,0,0,0-.19,0l-.2,0a.79.79,0,0,1-.53-.18.64.64,0,0,1-.21-.5.77.77,0,0,1,.2-.54.72.72,0,0,1,.53-.21,1,1,0,0,1,.83.46,1.91,1.91,0,0,1,.31,1.09,2.44,2.44,0,0,1-.55,1.59,2.74,2.74,0,0,1-1.49.92"/><path class="cls-2" d="M70.61,125Z"/><path class="cls-2" d="M71.36,132.86a3.69,3.69,0,0,0-1.36-1.3c-.56-.31-1.46-.72-2.7-1.24a10.43,10.43,0,0,1-2.7-1.46,2,2,0,0,1-.75-1.57,2.05,2.05,0,0,1,.6-1.42,2.47,2.47,0,0,1,1.89-.64,3.54,3.54,0,0,1,2.38.88A4.13,4.13,0,0,1,70,128h0a.68.68,0,0,0,.62.49h0v-2.43h0c-.27-.16-.54-.3-.8-.43a8,8,0,0,0-3.17-.89h-.43a4,4,0,0,0-2.71.95,3.09,3.09,0,0,0-1.06,2.39,3.38,3.38,0,0,0,.49,1.77,3.88,3.88,0,0,0,1.38,1.35,21.34,21.34,0,0,0,2.61,1.21,9.09,9.09,0,0,1,2.68,1.44,2.21,2.21,0,0,1,.74,1.69,2.46,2.46,0,0,1-.84,1.8,3.22,3.22,0,0,1-2.35.81,3.76,3.76,0,0,1-2.69-1L64.3,137a5.07,5.07,0,0,1-.37-.44l-.09-.14a6.08,6.08,0,0,1-.8-1.78c-.19-.64-.58-.7-.69-.7h0v3.15h0a5.3,5.3,0,0,0,.72.48,8.68,8.68,0,0,0,4.06,1.06h.23a4.86,4.86,0,0,0,3.3-1.08,3.53,3.53,0,0,0,1.23-2.79,3.58,3.58,0,0,0-.51-1.92"/><path class="cls-2" d="M76,133.51c1.18,3.27,3.92,5,6.52,3.92s2.81-4.31,1.75-7.6c-1.15-3.56-3.72-5.3-6.39-4.14s-3.07,4.58-1.88,7.82m11.08-2c0,4.3-2.86,6.91-7.05,6.91a6.38,6.38,0,0,1-6.77-6.68,6.8,6.8,0,0,1,7-7.09,6.66,6.66,0,0,1,6.82,6.86"/><path class="cls-2" d="M60.57,134.17c-.08,0-.42.06-.6.6,0,0,0,0,0,0s-.05.14-.07.21a5.67,5.67,0,0,1-.38.89,2.63,2.63,0,0,1-.2.33l0,.05c-.12.16-.26.35-.42.54a2.73,2.73,0,0,1-.94.69,2.78,2.78,0,0,1-1.07.2h-1c-.89-.1-1.19-.18-1.57-.62s-.4-.9-.4-2.44v-2.93h3.94s-.19-.65-.68-.65c-.21,0-3.09-.19-3.26-.19l0-5s3.4-.23,3.81-.13a1.91,1.91,0,0,1,1.08.69l.14.22c.07.14.19.35.29.6s.1.28.14.42a.29.29,0,0,1,0,.09,0,0,0,0,1,0,0c.16.6.61.58.61.58l-.24-2.52,0-.38a11.77,11.77,0,0,0-3.08-.36H50.3s0,.4.52.46l.16,0,.14,0,.22,0h0l.18.07a.94.94,0,0,1,.37.66,13.84,13.84,0,0,1,.08,2v6.41a16.2,16.2,0,0,1-.07,2,1.28,1.28,0,0,1-.37.66.5.5,0,0,1-.18.11,1.36,1.36,0,0,1-.35.09h0l-.38,0h-.07a.46.46,0,0,0-.5.45H60.32l.28-4.07Z"/><path class="cls-2" d="M48.78,125.18H36.15l-.07,3.15h.05a.55.55,0,0,0,.13,0,.55.55,0,0,0,.32-.4,5.18,5.18,0,0,1,.53-1.39,1.32,1.32,0,0,1,.81-.64c.29-.08,3.6.09,3.6.09l0,8.9a14.14,14.14,0,0,1-.09,2.08,1,1,0,0,1-.41.66,1.38,1.38,0,0,1-.45.16h0l-.25,0H39.8a.58.58,0,0,0-.6.44h6.5a.56.56,0,0,0-.59-.44h-.45a1.68,1.68,0,0,1-.79-.21,1,1,0,0,1-.39-.71,19.55,19.55,0,0,1-.07-2l0-8.88s3.33-.19,3.63-.1a1.41,1.41,0,0,1,.82.62,4,4,0,0,1,.49,1.27.91.91,0,0,0,.17.37l.08.08a.59.59,0,0,0,.22.13h.06Z"/><path class="cls-2" d="M34.06,137.79h-.42a1.53,1.53,0,0,1-.74-.2,1,1,0,0,1-.37-.68,17.27,17.27,0,0,1-.07-1.89v-8.22c0-.14,0-.25,0-.33a.91.91,0,0,1,.4-.62,1,1,0,0,1,.42-.15h0a1,1,0,0,1,.24,0h.49a.55.55,0,0,0,.57-.42H28.48a.55.55,0,0,0,.56.41h.43a1.52,1.52,0,0,1,.74.21,1,1,0,0,1,.37.67,17.36,17.36,0,0,1,.07,1.9v8.21c0,.14,0,.25,0,.33a.91.91,0,0,1-.39.63,1.21,1.21,0,0,1-.42.14h0l-.24,0H29a.53.53,0,0,0-.56.41h6.15a.55.55,0,0,0-.57-.41"/><path class="cls-2" d="M119.17,137.77h0a1.37,1.37,0,0,1-.53-.14.58.58,0,0,1-.3-.44c0-.15,0-.52,0-1.09v-.84h0V133.1a6.14,6.14,0,0,0-.17-1.65,1.73,1.73,0,0,0-.77-1,2.73,2.73,0,0,0-1.53-.39,3.27,3.27,0,0,0-1.57.4,4.74,4.74,0,0,0-1.43,1.2v-1.16h-2.67v.05c0,.11.12.39.39.4h0a1.55,1.55,0,0,1,.51.13.6.6,0,0,1,.3.44,12.65,12.65,0,0,1,0,1.61v2.59h0v.31a7.51,7.51,0,0,1-.06,1.17.57.57,0,0,1-.32.41,1.48,1.48,0,0,1-.48.11h0c-.32,0-.39.42-.39.44h4s-.07-.42-.4-.44h0a1.23,1.23,0,0,1-.53-.13.62.62,0,0,1-.31-.44c0-.15,0-.49,0-1v-.4h0V133.5h0v-1.15a4.56,4.56,0,0,1,1.18-1.24,2.39,2.39,0,0,1,1.34-.41,1.61,1.61,0,0,1,1,.3,1.21,1.21,0,0,1,.49.7,6.79,6.79,0,0,1,.09,1.32v5.2h2.65s-.07-.42-.4-.44"/><polygon class="cls-2" points="155.23 130.07 155.23 130.07 155.24 130.07 155.23 130.07"/><path class="cls-2" d="M155.66,134.74a2.12,2.12,0,0,0-.77-.8,15.34,15.34,0,0,0-1.53-.76,6.3,6.3,0,0,1-1.52-.9c-.28-.27-.44-.43-.44-.81a1.08,1.08,0,0,1,.35-.77,1.32,1.32,0,0,1,1.06-.39,1.93,1.93,0,0,1,1.35.54,2.27,2.27,0,0,1,.72,1.07h0s.09.31.35.3h0v-1.49h0a5.3,5.3,0,0,0-2.25-.81h-.24a2.1,2.1,0,0,0-1.53.59,2,2,0,0,0-.6,1.47,2.61,2.61,0,0,0,.23,1.17,2.3,2.3,0,0,0,.78.83,10.41,10.41,0,0,0,1.48.75,4.89,4.89,0,0,1,1.52.89,1.27,1.27,0,0,1,.45.95,1.33,1.33,0,0,1-.48,1,1.75,1.75,0,0,1-1.33.5,2.06,2.06,0,0,1-1.52-.61l-.09-.1a2.47,2.47,0,0,1-.21-.27.35.35,0,0,1-.05-.08,3.5,3.5,0,0,1-.44-1c-.11-.4-.33-.43-.39-.44h0v1.94h0a3.69,3.69,0,0,0,.4.29,4.61,4.61,0,0,0,2.3.65h.13a2.58,2.58,0,0,0,1.86-.66,2.25,2.25,0,0,0,.7-1.72,3,3,0,0,0-.28-1.34"/><path class="cls-2" d="M109,125.29h-4.32a.56.56,0,0,0,.41.47h0a1.85,1.85,0,0,1,.8.28,1.17,1.17,0,0,1,.53.69,4.44,4.44,0,0,1,.12,1h0c0,.15,0,.32,0,.5v4.4a16.33,16.33,0,0,1-.11,2.21,3.15,3.15,0,0,1-.57,1.36,3.55,3.55,0,0,1-1.44,1.11,4.69,4.69,0,0,1-2.07.44,4,4,0,0,1-2.41-.66,2.56,2.56,0,0,1-1.1-1.55,14.92,14.92,0,0,1-.2-3v-4.07c0-.39,0-.72,0-1v-.06a6.58,6.58,0,0,1,.06-.8,1,1,0,0,1,.33-.69.9.9,0,0,1,.42-.17l.11,0h0l.26,0h.25a.53.53,0,0,0,.51-.44h-5.9a.54.54,0,0,0,.53.44h.24l.32,0h0l.11,0a.91.91,0,0,1,.41.17,1.06,1.06,0,0,1,.34.71.06.06,0,0,1,0,0c0,.07,0,.16,0,.25s0,.41,0,.7v-.15c0,.28,0,.61,0,1v5.35a5.19,5.19,0,0,0,.51,2.49A3.66,3.66,0,0,0,99,137.87a6.44,6.44,0,0,0,2.92.59,7.16,7.16,0,0,0,2.66-.4,4.11,4.11,0,0,0,1.73-1.23,3.42,3.42,0,0,0,.74-1.57,16.33,16.33,0,0,0,.13-2.45V128h0a8.12,8.12,0,0,1,.09-1,1.39,1.39,0,0,1,.52-.74,1.71,1.71,0,0,1,.81-.39h0c.32-.07.39-.46.4-.48Z"/><path class="cls-2" d="M133.7,130.45h-2.62s.06.4.36.47h0a1.49,1.49,0,0,1,.28.11.53.53,0,0,1,.28.38.68.68,0,0,1,0,.14,3,3,0,0,1-.27.88.21.21,0,0,1,0,.07q-.06.16-.15.36l-1.9,4.23-2.1-4.74a3.59,3.59,0,0,1-.39-1,.38.38,0,0,1,.22-.37,2,2,0,0,1,.41-.08h0c.32,0,.39-.42.39-.44h-3.53s.06.39.35.47h0a.85.85,0,0,1,.42.23,4.89,4.89,0,0,1,.65,1.15l2.77,6.26h.56L132,133a10.9,10.9,0,0,1,.75-1.46l.16-.22v0a1.15,1.15,0,0,1,.49-.33h0a.68.68,0,0,0,.3-.49h0Z"/><path class="cls-2" d="M136.86,130.71c1.51-.54,2.65.25,3.4,2.23h-4.91a2.49,2.49,0,0,1,1.51-2.23m2.84,7.16a2.8,2.8,0,0,1-3.48-1.36,5.29,5.29,0,0,1-.51-1,6.13,6.13,0,0,1-.38-2.14H142l-.09-.37a3.72,3.72,0,0,0-3.56-2.9,4.16,4.16,0,0,0-4.28,4.35,3.9,3.9,0,0,0,4.14,4.08,4.11,4.11,0,0,0,3.77-2h-1a2.28,2.28,0,0,1-1.26,1.36"/><path class="cls-2" d="M123,130.54h-2.82v.05a.46.46,0,0,0,.41.4h0a1.62,1.62,0,0,1,.53.13.6.6,0,0,1,.32.44c0,.19.06,1.94.06,1.94v2.26h0v.31a7,7,0,0,1-.07,1.17.59.59,0,0,1-.33.41,1.78,1.78,0,0,1-.51.11h0c-.34,0-.41.42-.41.44h4.18s-.07-.42-.42-.44h0a1.39,1.39,0,0,1-.56-.13.61.61,0,0,1-.32-.44,6.69,6.69,0,0,1,0-1v-.4h0c0-.07,0-5.22,0-5.22"/><path class="cls-2" d="M121.2,126.09a1,1,0,0,1,.29-.71,1,1,0,0,1,.7-.29,1,1,0,0,1,.7.29,1,1,0,0,1,.29.71,1,1,0,0,1-.29.71.92.92,0,0,1-.7.3,1,1,0,0,1-.7-.3,1,1,0,0,1-.29-.71"/><path class="cls-2" d="M159.76,130.52h-2.82a.1.1,0,0,0,0,0,.48.48,0,0,0,.42.41h0a1.23,1.23,0,0,1,.53.13.58.58,0,0,1,.32.44c0,.19.06,1.93.06,1.93v2.27h0v.31a9.31,9.31,0,0,1-.06,1.17.59.59,0,0,1-.34.4,1.47,1.47,0,0,1-.51.12h0c-.34,0-.41.43-.41.45h4.18s-.07-.42-.42-.45h0a1.41,1.41,0,0,1-.57-.13.62.62,0,0,1-.32-.44,8.4,8.4,0,0,1-.05-1v-.4h0c0-.07,0-5.23,0-5.23"/><path class="cls-2" d="M157.92,126.07a1,1,0,0,1,.29-.7,1,1,0,0,1,.71-.3.92.92,0,0,1,.69.3,1,1,0,0,1,.29.7,1,1,0,0,1-.29.72.92.92,0,0,1-.69.3,1,1,0,0,1-.71-.3,1,1,0,0,1-.29-.72"/><path class="cls-2" d="M169.12,136a2.7,2.7,0,0,1-.28.75,2.18,2.18,0,0,1-1.1,1c-1.6.69-3.26-.37-4-2.37s-.43-4,1.18-4.73a2.35,2.35,0,0,1,2,0,3.88,3.88,0,0,1,1.89,2.45,8.39,8.39,0,0,1,.29,1.23Zm2.78,2.19h0a.91.91,0,0,0-.12-.27.39.39,0,0,0-.29-.17h0a1.52,1.52,0,0,1-.55-.13.61.61,0,0,1-.32-.44,1.25,1.25,0,0,0,0-.15c0-.18,0-.47,0-.85v-.4h0V125.17h-2.77v0c0,.11.13.38.41.39h0a1.43,1.43,0,0,1,.53.12.74.74,0,0,1,.21.18.54.54,0,0,1,.1.23h0a.49.49,0,0,0,0,.12c0,.22,0,.74,0,1.57V131a4.1,4.1,0,0,0-2.76-1,4.17,4.17,0,0,0-4.29,4.35,3.92,3.92,0,0,0,4.15,4.1,4.51,4.51,0,0,0,2.93-1l.09.73Z"/><path class="cls-2" d="M188.53,136a2.7,2.7,0,0,1-.28.75,2.18,2.18,0,0,1-1.1,1c-1.6.69-3.26-.37-4-2.37s-.43-4,1.18-4.73a2.35,2.35,0,0,1,2,0,3.88,3.88,0,0,1,1.89,2.45,8.39,8.39,0,0,1,.29,1.23Zm2.78,2.19h0a.91.91,0,0,0-.12-.27.39.39,0,0,0-.29-.17h0a1.52,1.52,0,0,1-.55-.13.63.63,0,0,1-.32-.44,1.25,1.25,0,0,0,0-.15c0-.18,0-.47,0-.85v-.4h0c0-.07,0-10.63,0-10.63H187.2v0c0,.11.13.38.41.39h0a1.43,1.43,0,0,1,.53.12.74.74,0,0,1,.21.18.54.54,0,0,1,.1.23h0a.49.49,0,0,0,0,.12c0,.22,0,.74,0,1.57V131a4.1,4.1,0,0,0-2.75-1,4.18,4.18,0,0,0-4.3,4.35,3.92,3.92,0,0,0,4.15,4.1,4.51,4.51,0,0,0,2.93-1l.09.73Z"/><path class="cls-2" d="M149.76,131.27h0v0a.8.8,0,0,0,0-.24.36.36,0,0,0,0-.11,1.24,1.24,0,0,0-.28-.42,1.25,1.25,0,0,0-1-.4,2.32,2.32,0,0,0-1.43.58,3.37,3.37,0,0,0-.88,1v-1.15h-2.82a.13.13,0,0,0,0,.05c0,.11.13.39.42.4h0a1.62,1.62,0,0,1,.53.13.64.64,0,0,1,.33.44c0,.19,0,1.94,0,1.94v2.26h0v.31a9.17,9.17,0,0,1-.06,1.17.63.63,0,0,1-.34.41,1.7,1.7,0,0,1-.51.11h0c-.35,0-.42.42-.42.44h4.18s-.07-.42-.42-.44h0a1.31,1.31,0,0,1-.56-.13.62.62,0,0,1-.33-.44,8.4,8.4,0,0,1-.05-1v-.4h0v-3l.07-.25a2.6,2.6,0,0,1,.73-1.16h0l.23-.2.12-.09.09-.06.13-.08.11,0,.09,0a.63.63,0,0,1,.19,0c.25,0,.35.28.37.54a.86.86,0,0,0,.07.21h0a.67.67,0,0,0,.06.12h0a.74.74,0,0,0,.62.36.76.76,0,0,0,.56-.26h0s0,0,0-.06a1.1,1.1,0,0,0,.09-.14.86.86,0,0,0,0-.27"/><path class="cls-2" d="M177.54,137.12a2.76,2.76,0,0,1-2.41.69,1.86,1.86,0,0,1-1.2-1.66,1.68,1.68,0,0,1,.47-1.31,3.45,3.45,0,0,1,1.88-.79,3,3,0,0,0,1.26-.72Zm2.37.61h0a1.37,1.37,0,0,1-.56-.14A.88.88,0,0,1,179,137c0-.16,0-4.18,0-4.18a6.41,6.41,0,0,0-.18-1.74,1.86,1.86,0,0,0-.81-1,2.89,2.89,0,0,0-1.61-.41,4,4,0,0,0-1.77.47,5,5,0,0,0-1.39,1.19,1.05,1.05,0,0,0-.17.64.74.74,0,0,0,.81.7.76.76,0,0,0,.72-.56l0-.08v0h0a1.58,1.58,0,0,0-.06-.77c-.09-.36.37-.75.57-.85a2,2,0,0,1,.86-.19,1.71,1.71,0,0,1,1.06.32,1.34,1.34,0,0,1,.41.85,8,8,0,0,1,.09,1.39,3.34,3.34,0,0,1-2,1.06,3.53,3.53,0,0,0-2.35,1h0a2.12,2.12,0,0,0,.86,3.47h0a3.66,3.66,0,0,0,2.79-.31,2.19,2.19,0,0,0,.65-.44l.17.65h2.62s-.07-.44-.42-.47"/><path class="cls-2" d="M42.58,148.45Z"/><path class="cls-2" d="M43,153.12a2.19,2.19,0,0,0-.77-.8c-.32-.19-.83-.44-1.53-.76a5.54,5.54,0,0,1-1.52-.9,1,1,0,0,1-.44-.81,1,1,0,0,1,.34-.76,1.32,1.32,0,0,1,1.07-.4,1.89,1.89,0,0,1,1.34.54,2.24,2.24,0,0,1,.72,1.07h0s.1.31.36.31v-1.49h0l-.46-.27a4.2,4.2,0,0,0-1.79-.55h-.24a2.1,2.1,0,0,0-1.53.58,1.94,1.94,0,0,0-.61,1.47,2.5,2.5,0,0,0,.24,1.18,2.38,2.38,0,0,0,.78.83,10.52,10.52,0,0,0,1.48.74A5,5,0,0,1,42,154a1.26,1.26,0,0,1,.46.95,1.38,1.38,0,0,1-.48,1,1.77,1.77,0,0,1-1.34.49,2,2,0,0,1-1.52-.61l-.08-.09a2.47,2.47,0,0,1-.21-.27l-.06-.09a3.56,3.56,0,0,1-.44-1c-.11-.4-.33-.43-.38-.43h0v1.93h0a2.78,2.78,0,0,0,.41.29,4.61,4.61,0,0,0,2.3.65h.12a2.62,2.62,0,0,0,1.87-.66,2.27,2.27,0,0,0,.7-1.72,3.06,3.06,0,0,0-.28-1.34"/><path class="cls-2" d="M31.4,149.06c1.52-.54,2.66.25,3.4,2.23H29.9a2.46,2.46,0,0,1,1.5-2.23m2.84,7.16a2.8,2.8,0,0,1-3.48-1.36,5,5,0,0,1-.51-1,6.13,6.13,0,0,1-.38-2.14h6.64c0-.13-.06-.25-.09-.37a3.71,3.71,0,0,0-3.56-2.89,4.16,4.16,0,0,0-4.28,4.34,3.9,3.9,0,0,0,4.14,4.08,4.08,4.08,0,0,0,3.77-2h-1a2.22,2.22,0,0,1-1.26,1.36"/><path class="cls-2" d="M44.64,149.34h0a1.43,1.43,0,0,1,.54.14.57.57,0,0,1,.3.44,10.28,10.28,0,0,1,0,1.09v.84h0v2a5.88,5.88,0,0,0,.17,1.66,1.77,1.77,0,0,0,.76.95,2.77,2.77,0,0,0,1.54.39,3.27,3.27,0,0,0,1.57-.4,4.74,4.74,0,0,0,1.43-1.2l.14,1.31h2.53v0c0-.11-.12-.39-.4-.4h0a1.55,1.55,0,0,1-.5-.13.6.6,0,0,1-.3-.44,11.84,11.84,0,0,1-.06-1.61v-2.59h0V151a6.36,6.36,0,0,1,.06-1.17.59.59,0,0,1,.31-.41,1.55,1.55,0,0,1,.49-.11h0c.32,0,.39-.42.39-.44H49.71s.07.42.4.44h0a1.23,1.23,0,0,1,.53.13.6.6,0,0,1,.31.44c0,.15,0,.49,0,1v.4h0v2.26h0v1a4.44,4.44,0,0,1-1.19,1.24,2.34,2.34,0,0,1-1.33.41,1.59,1.59,0,0,1-1-.3,1.24,1.24,0,0,1-.49-.7,6.79,6.79,0,0,1-.09-1.32v-5.05H44.25s.07.42.39.44"/><path class="cls-2" d="M117.24,149.34h0a1.37,1.37,0,0,1,.53.14.57.57,0,0,1,.3.44,9.29,9.29,0,0,1,.05,1.09v.84h0v2a6.28,6.28,0,0,0,.17,1.66,1.79,1.79,0,0,0,.77.95,2.76,2.76,0,0,0,1.53.39,3.24,3.24,0,0,0,1.57-.4,4.89,4.89,0,0,0,1.44-1.2l.13,1.31h2.53v0c0-.11-.11-.39-.39-.4h0a1.48,1.48,0,0,1-.5-.13.64.64,0,0,1-.31-.44,15.11,15.11,0,0,1-.05-1.61v-2.59h0V151a9.17,9.17,0,0,1,.06-1.17.6.6,0,0,1,.32-.41,1.55,1.55,0,0,1,.48-.11h0c.33,0,.39-.42.39-.44h-3.94s.07.42.39.44h0a1.23,1.23,0,0,1,.53.13.57.57,0,0,1,.3.44,8.4,8.4,0,0,1,0,1v.4h0v2.26h0v1a4.58,4.58,0,0,1-1.19,1.24,2.39,2.39,0,0,1-1.33.41,1.64,1.64,0,0,1-1-.3,1.27,1.27,0,0,1-.48-.7,5.92,5.92,0,0,1-.1-1.32v-5.05h-2.65s.07.42.4.44"/><path class="cls-2" d="M57.19,148.89H54.37v.05c0,.11.13.39.42.4h0a1.43,1.43,0,0,1,.53.12.64.64,0,0,1,.33.44c0,.19,0,1.94,0,1.94v2.26h0v.31a9,9,0,0,1-.06,1.17.63.63,0,0,1-.34.41,1.7,1.7,0,0,1-.51.11h0c-.35,0-.42.42-.42.44h4.18s-.07-.42-.42-.44h0a1.7,1.7,0,0,1-.56-.13.64.64,0,0,1-.33-.45,8.4,8.4,0,0,1-.05-1v-.4h0v-5.22"/><path class="cls-2" d="M55.36,144.44a1,1,0,0,1,1-1,.94.94,0,0,1,.69.29,1,1,0,0,1,0,1.43.94.94,0,0,1-.69.29,1,1,0,0,1-1-1"/><path class="cls-2" d="M159.23,156.63h0a.78.78,0,0,0-.11-.27.41.41,0,0,0-.3-.17h0a1.34,1.34,0,0,1-.55-.13.58.58,0,0,1-.31-.43.63.63,0,0,1,0-.16c0-.18,0-.46,0-.85v-.39h0c0-.08,0-10.63,0-10.63h-2.77v0a.47.47,0,0,0,.41.4h0a1.42,1.42,0,0,1,.52.12.63.63,0,0,1,.21.18.64.64,0,0,1,.1.24h0v.13c0,.21,0,.73,0,1.57l0,9.06c0,.07,0,.24,0,.28a.59.59,0,0,1-.32.43,1.3,1.3,0,0,1-.55.13h0a.39.39,0,0,0-.3.17.91.91,0,0,0-.12.27h4.07Z"/><path class="cls-2" d="M188.64,149.64h0v0a1.29,1.29,0,0,0,0-.24.54.54,0,0,0,0-.11,1.46,1.46,0,0,0-.28-.42,1.28,1.28,0,0,0-1-.39,2.31,2.31,0,0,0-1.42.57,3.06,3.06,0,0,0-.88,1v-1.16h-2.83a.1.1,0,0,1,0,0c0,.11.13.39.42.4h0a1.33,1.33,0,0,1,.54.13.59.59,0,0,1,.32.43c0,.19,0,5.54,0,5.69a.59.59,0,0,1-.34.4,1.39,1.39,0,0,1-.51.11h0c-.34,0-.41.43-.42.45h4.18s-.07-.42-.42-.45h0a1.59,1.59,0,0,1-.56-.13.6.6,0,0,1-.32-.45c0-.14-.06-3-.06-4.45l.07-.26a2.57,2.57,0,0,1,.73-1.15h0l.23-.21.13-.09.08-.06.13-.08.11,0,.09,0,.19,0c.26,0,.36.27.38.53a.51.51,0,0,0,.06.21h0l.06.12v0a.77.77,0,0,0,.63.35.74.74,0,0,0,.56-.26h0a.25.25,0,0,0,0-.07.55.55,0,0,0,.09-.14.6.6,0,0,0,.06-.27"/><path class="cls-2" d="M142.94,154.38a2.68,2.68,0,0,1-.27.75,2.24,2.24,0,0,1-1.11,1c-1.59.69-3.26-.37-4-2.37s-.42-4,1.19-4.73a2.33,2.33,0,0,1,2,0,3.85,3.85,0,0,1,1.89,2.45,10,10,0,0,1,.3,1.23Zm2.78,2.19h0a.78.78,0,0,0-.11-.27.4.4,0,0,0-.3-.17h0a1.77,1.77,0,0,1-.55-.13.59.59,0,0,1-.31-.44.54.54,0,0,1,0-.15c0-.18,0-.47,0-.86v-.39h0c0-.07,0-10.63,0-10.63h-2.77v.05a.45.45,0,0,0,.41.39h0a1.42,1.42,0,0,1,.52.12.74.74,0,0,1,.21.17.64.64,0,0,1,.1.24h0a.49.49,0,0,1,0,.12c0,.22,0,.74,0,1.57v3.1a4.32,4.32,0,0,0-7,3.38,3.92,3.92,0,0,0,4.15,4.1,4.48,4.48,0,0,0,2.92-1l.1.73Z"/><path class="cls-2" d="M69.26,155.58a2.71,2.71,0,0,1-2.41.68,1.86,1.86,0,0,1-1.19-1.66,1.65,1.65,0,0,1,.47-1.3,3.45,3.45,0,0,1,1.88-.8,2.92,2.92,0,0,0,1.25-.72Zm2.38.61h0a1.5,1.5,0,0,1-.56-.14,1,1,0,0,1-.36-.59c0-.16,0-4.18,0-4.18a6.31,6.31,0,0,0-.18-1.74,1.83,1.83,0,0,0-.81-1,2.83,2.83,0,0,0-1.61-.41,4,4,0,0,0-1.77.46A4.89,4.89,0,0,0,65,149.77a1.08,1.08,0,0,0-.17.65.74.74,0,0,0,.81.69.77.77,0,0,0,.72-.56.31.31,0,0,1,0-.08v0h0a1.58,1.58,0,0,0-.06-.77c-.1-.37.37-.76.56-.86a2.2,2.2,0,0,1,.87-.19,1.71,1.71,0,0,1,1.06.32,1.44,1.44,0,0,1,.41.86,7.84,7.84,0,0,1,.09,1.38,3.28,3.28,0,0,1-2,1.06,3.64,3.64,0,0,0-2.36,1h0a2.13,2.13,0,0,0,.87,3.47h0a3.71,3.71,0,0,0,2.79-.31,2.33,2.33,0,0,0,.64-.44l.14.64h2.65s-.07-.45-.41-.47"/><path class="cls-2" d="M132.28,155.48a2.74,2.74,0,0,1-2.41.69,1.87,1.87,0,0,1-1.19-1.66,1.71,1.71,0,0,1,.46-1.31,3.51,3.51,0,0,1,1.88-.79,3,3,0,0,0,1.26-.72Zm2.38.61h0a1.38,1.38,0,0,1-.57-.14,1,1,0,0,1-.35-.59c0-.16,0-4.18,0-4.18a6.41,6.41,0,0,0-.18-1.74,1.86,1.86,0,0,0-.81-1,2.91,2.91,0,0,0-1.61-.41,4,4,0,0,0-1.77.47,4.75,4.75,0,0,0-1.39,1.19,1.14,1.14,0,0,0-.18.64.78.78,0,0,0,1.53.14.24.24,0,0,0,0-.08,0,0,0,0,0,0,0h0a1.47,1.47,0,0,0-.07-.76c-.09-.37.38-.76.57-.87a2.19,2.19,0,0,1,.87-.18,1.71,1.71,0,0,1,1.06.32,1.45,1.45,0,0,1,.41.85,9.11,9.11,0,0,1,.09,1.39,3.34,3.34,0,0,1-2,1.06,3.58,3.58,0,0,0-2.36,1h0a2.12,2.12,0,0,0,.87,3.47h0a3.66,3.66,0,0,0,2.79-.31,2.23,2.23,0,0,0,.64-.44l.16.65h2.63s-.07-.44-.41-.47"/><path class="cls-2" d="M151.66,155.48a2.74,2.74,0,0,1-2.41.69,1.87,1.87,0,0,1-1.19-1.66,1.71,1.71,0,0,1,.46-1.31,3.48,3.48,0,0,1,1.88-.79,3,3,0,0,0,1.26-.72Zm2.38.61h0a1.38,1.38,0,0,1-.57-.14,1,1,0,0,1-.35-.59c0-.16,0-4.18,0-4.18a6.41,6.41,0,0,0-.18-1.74,1.86,1.86,0,0,0-.81-1,2.94,2.94,0,0,0-1.61-.41,4,4,0,0,0-1.77.47,4.75,4.75,0,0,0-1.39,1.19,1.06,1.06,0,0,0-.18.64.78.78,0,0,0,1.53.14.24.24,0,0,0,0-.08s0,0,0,0h0a1.47,1.47,0,0,0-.07-.76c-.09-.37.38-.76.57-.87a2.19,2.19,0,0,1,.87-.18,1.73,1.73,0,0,1,1.06.32,1.45,1.45,0,0,1,.41.85,9.11,9.11,0,0,1,.09,1.39,3.37,3.37,0,0,1-2,1.06,3.58,3.58,0,0,0-2.36,1h0a2.12,2.12,0,0,0,.87,3.47h0a3.66,3.66,0,0,0,2.79-.31,2.23,2.23,0,0,0,.64-.44l.15.65h2.64s-.07-.44-.41-.47"/><path class="cls-2" d="M165.08,155.48a2.76,2.76,0,0,1-2.41.69,1.86,1.86,0,0,1-1.2-1.66,1.68,1.68,0,0,1,.47-1.31,3.45,3.45,0,0,1,1.88-.79,3,3,0,0,0,1.26-.72Zm2.37.61h0a1.33,1.33,0,0,1-.56-.14.88.88,0,0,1-.35-.59c0-.16,0-4.18,0-4.18a6.41,6.41,0,0,0-.18-1.74,1.86,1.86,0,0,0-.81-1,2.89,2.89,0,0,0-1.61-.41,4,4,0,0,0-1.77.47,5,5,0,0,0-1.39,1.19,1.05,1.05,0,0,0-.17.64.74.74,0,0,0,.81.7.76.76,0,0,0,.72-.56.24.24,0,0,1,0-.08v0h0a1.54,1.54,0,0,0-.06-.76c-.09-.37.37-.76.57-.87a2.14,2.14,0,0,1,.86-.18,1.71,1.71,0,0,1,1.06.32,1.34,1.34,0,0,1,.41.85,8,8,0,0,1,.09,1.39,3.34,3.34,0,0,1-2,1.06,3.53,3.53,0,0,0-2.35,1h0a2.12,2.12,0,0,0,.86,3.47h0a3.66,3.66,0,0,0,2.79-.31,2.19,2.19,0,0,0,.65-.44l.15.65h2.64s-.07-.44-.42-.47"/><path class="cls-2" d="M178.64,155.48a2.74,2.74,0,0,1-2.41.69,1.87,1.87,0,0,1-1.19-1.66,1.71,1.71,0,0,1,.46-1.31,3.48,3.48,0,0,1,1.88-.79,3,3,0,0,0,1.26-.72Zm2.38.61h0a1.38,1.38,0,0,1-.57-.14,1,1,0,0,1-.35-.59c0-.16,0-4.18,0-4.18a6.41,6.41,0,0,0-.18-1.74,1.86,1.86,0,0,0-.81-1,2.94,2.94,0,0,0-1.61-.41,4,4,0,0,0-1.77.47,4.75,4.75,0,0,0-1.39,1.19,1.06,1.06,0,0,0-.18.64.78.78,0,0,0,1.53.14.24.24,0,0,0,0-.08s0,0,0,0h0a1.47,1.47,0,0,0-.07-.76c-.09-.37.38-.76.57-.87a2.19,2.19,0,0,1,.87-.18,1.68,1.68,0,0,1,1,.32,1.41,1.41,0,0,1,.42.85,10.64,10.64,0,0,1,.09,1.39,3.37,3.37,0,0,1-2,1.06,3.58,3.58,0,0,0-2.36,1h0a2.12,2.12,0,0,0,.87,3.47h0a3.63,3.63,0,0,0,2.78-.31,2.19,2.19,0,0,0,.65-.44l.17.65h2.62s-.07-.44-.41-.47"/><path class="cls-2" d="M194.38,155.48a2.74,2.74,0,0,1-2.41.69,1.87,1.87,0,0,1-1.19-1.66,1.71,1.71,0,0,1,.46-1.31,3.48,3.48,0,0,1,1.88-.79,3,3,0,0,0,1.26-.72Zm2.38.61h0a1.38,1.38,0,0,1-.57-.14,1,1,0,0,1-.35-.59c0-.16,0-4.18,0-4.18a6.41,6.41,0,0,0-.18-1.74,1.86,1.86,0,0,0-.81-1,2.94,2.94,0,0,0-1.61-.41,4,4,0,0,0-1.77.47,4.75,4.75,0,0,0-1.39,1.19,1.06,1.06,0,0,0-.18.64.78.78,0,0,0,1.53.14.24.24,0,0,0,0-.08s0,0,0,0h0a1.47,1.47,0,0,0-.07-.76c-.09-.37.38-.76.57-.87a2.19,2.19,0,0,1,.87-.18,1.68,1.68,0,0,1,1.05.32,1.41,1.41,0,0,1,.42.85,10.64,10.64,0,0,1,.09,1.39,3.37,3.37,0,0,1-2,1.06,3.58,3.58,0,0,0-2.36,1h0a2.12,2.12,0,0,0,.87,3.47h0a3.66,3.66,0,0,0,2.79-.31,2.23,2.23,0,0,0,.64-.44l.15.65h2.64s-.07-.44-.41-.47"/><path class="cls-2" d="M26.58,143.43H22.64a.55.55,0,0,0,.34.41.5.5,0,0,0,.19,0h0c.66.12,1.07.28,1.21.5a7.66,7.66,0,0,1,.3,2.87v6.46a13.33,13.33,0,0,1-.71,5.1,5.36,5.36,0,0,1-2.89,2.53,8,8,0,0,1-1.26.35l-.75.09H19a3,3,0,0,1-.36,0s.12.65.94.45a4.29,4.29,0,0,0,.59-.18l1-.33h0l.11,0,.44-.18.28-.13.34-.16a7.55,7.55,0,0,0,3.09-2.52,9.1,9.1,0,0,0,1.17-5v-6.46a8.8,8.8,0,0,1,.25-2.85,1.49,1.49,0,0,1,1.06-.51h.19a.52.52,0,0,0,.23,0,.55.55,0,0,0,.28-.38h-2Z"/><path class="cls-2" d="M62.24,149.38h1.4v-.47h-1a.55.55,0,0,1-.18,0,.58.58,0,0,1-.43-.31,5.62,5.62,0,0,1-.08-1h0s0,0,0,0c0-.29-.29-.39-.4-.42h0c0,1.78-2.1,1.79-2.1,1.79h0V149a.47.47,0,0,0,.41.4h0a1.69,1.69,0,0,1,.53.13.58.58,0,0,1,.32.44,2.23,2.23,0,0,1,.06.45c0,.12,0,4.81,0,5,0,0,0,0,0,0h0a1.4,1.4,0,0,0,1.4,1.39h1.43s-.08-.41-.41-.45h0a1.84,1.84,0,0,1-.56-.13.62.62,0,0,1-.32-.45,6.59,6.59,0,0,1,0-1v-5.39"/><path class="cls-2" d="M115.21,150.64h-4.28a.48.48,0,0,0,.46.38h.21l.28,0h0l.09,0a.85.85,0,0,1,.36.15.86.86,0,0,1,.29.61,0,0,0,0,1,0,0c0,.06,0,.14,0,.21s0,1,0,1.34v.49a3.32,3.32,0,0,1-2,2c-2.6,1.13-5.39-.75-6.58-4-1-2.63-1-5.07.5-6.63a7.93,7.93,0,0,1,1-.89,4.31,4.31,0,0,1,2.71-.75,4.09,4.09,0,0,1,2.88,1.19,8.32,8.32,0,0,1,1.61,2.51c.22.57.61.51.63.52h0v0h0v-2.21a4.66,4.66,0,0,0-2.06-1.91h0l-.31-.13-.37-.13-.21-.07-.5-.13-.2,0c-.21,0-.42-.07-.64-.09h0a6.83,6.83,0,0,0-.7,0c-.27,0-.53,0-.79,0a8,8,0,0,0-1.44.27h0l-.35.12a6,6,0,0,0-2.42,1.51,2.18,2.18,0,0,0-.21.22h0a7.18,7.18,0,0,0-1.84,4.94,6.38,6.38,0,0,0,6.76,6.68,6.72,6.72,0,0,0,6.09-3.12s0-.9,0-1.14a6.36,6.36,0,0,1,0-.76,1,1,0,0,1,.29-.58.75.75,0,0,1,.36-.15l.09,0h.49a.45.45,0,0,0,.44-.38h-.81Z"/><path class="cls-2" d="M171.57,144.49a.88.88,0,0,0-.64-.28.86.86,0,0,0-.67.3,1,1,0,0,0-.27.68.87.87,0,0,0,.26.62.85.85,0,0,0,.64.27,1,1,0,0,0,1-1,.9.9,0,0,0-.27-.64"/><path class="cls-2" d="M171.39,148.93h-2.82v0a.5.5,0,0,0,.42.41h0a1.33,1.33,0,0,1,.54.13l.11.08a.65.65,0,0,1,.18.37c0,.06,0,.54,0,1.19h0v5.54a10,10,0,0,1-.37,3.45,4.38,4.38,0,0,1-1.72,2.09,5.22,5.22,0,0,1-1.32.56h0v0c0,.05.1.19.39.18a4.08,4.08,0,0,0,1.57-.57,9,9,0,0,0,1.82-1.61,6,6,0,0,0,1.15-3.89s0-8,0-8"/><path class="cls-2" d="M90.52,149.06c1.52-.54,2.66.25,3.4,2.23H89a2.46,2.46,0,0,1,1.5-2.23m2.85,7.16a2.8,2.8,0,0,1-3.48-1.36,4.58,4.58,0,0,1-.51-1,5.7,5.7,0,0,1-.38-2.14h6.63a2.22,2.22,0,0,0-.09-.37A3.7,3.7,0,0,0,92,148.42a4.16,4.16,0,0,0-4.28,4.34,3.9,3.9,0,0,0,4.14,4.08,4.07,4.07,0,0,0,3.77-2h-1a2.23,2.23,0,0,1-1.25,1.36"/><path class="cls-2" d="M84.69,154.58a2.87,2.87,0,0,1-.27.76,2.23,2.23,0,0,1-1.11,1c-1.59.69-3.26-.36-4-2.37s-.43-4,1.18-4.73a2.35,2.35,0,0,1,2,0,3.83,3.83,0,0,1,1.88,2.45,10,10,0,0,1,.3,1.23Zm2.78,2.2h0a.78.78,0,0,0-.11-.27.41.41,0,0,0-.3-.17h0a1.3,1.3,0,0,1-.55-.13.58.58,0,0,1-.32-.43.63.63,0,0,1,0-.16c0-.18,0-.46,0-.85v-.39h0c0-.08,0-10.63,0-10.63H83.36v0a.46.46,0,0,0,.41.39h0a1.54,1.54,0,0,1,.53.12.7.7,0,0,1,.2.18.66.66,0,0,1,.11.24h0v.12c0,.22,0,.74,0,1.58v3.1a4.12,4.12,0,0,0-2.76-1,4.17,4.17,0,0,0-4.29,4.35A3.91,3.91,0,0,0,81.8,157a4.46,4.46,0,0,0,2.92-1l.1.74Z"/></svg>